<?xml version="1.0" standalone="no"?>
<!DOCTYPE svg PUBLIC "-//W3C//DTD SVG 20010904//EN"
 "http://www.w3.org/TR/2001/REC-SVG-20010904/DTD/svg10.dtd">
<svg version="1.0" xmlns="http://www.w3.org/2000/svg"
 width="260.000000pt" height="280.000000pt" viewBox="0 0 260.000000 280.000000"
 preserveAspectRatio="xMidYMid meet">

<g transform="translate(0.000000,280.000000) scale(0.100000,-0.100000)"
fill="#000000" stroke="none">
<path d="M1234 2493 c-26 -28 -29 -70 -10 -115 6 -14 3 -18 -13 -18 -26 0 -38
-25 -21 -45 10 -12 9 -16 -1 -19 -132 -41 -182 -70 -257 -150 -27 -29 -62 -76
-76 -105 l-27 -52 -247 2 c-176 1 -247 -2 -250 -10 -3 -8 111 -11 427 -11 281
0 431 3 431 10 0 6 -52 10 -135 10 -88 0 -135 4 -135 11 0 5 4 7 10 4 5 -3 7
0 4 8 -3 8 5 25 18 39 13 13 20 19 16 14 -12 -15 -10 -66 2 -66 6 0 11 16 11
35 2 39 2 42 13 68 15 32 21 17 18 -43 -3 -41 0 -60 8 -60 8 0 11 22 9 68 l-3
67 40 27 c73 50 74 49 74 -64 0 -75 3 -99 13 -96 18 6 23 188 5 200 -9 5 -9 8
-1 8 6 0 18 3 27 6 13 5 15 -11 13 -132 l-2 -137 -452 -1 c-363 0 -456 2 -477
13 -21 11 -28 12 -41 1 -19 -16 -19 -34 0 -50 12 -10 20 -9 40 4 23 15 112 16
1038 15 898 -2 1014 -4 1030 -18 22 -18 50 -5 55 27 4 27 -33 40 -56 19 -14
-13 -85 -15 -474 -16 l-458 -1 0 140 c0 77 3 140 8 140 4 0 5 -50 4 -111 -3
-90 -1 -110 10 -107 10 4 13 30 13 106 0 97 1 102 20 96 45 -15 50 -25 50
-113 0 -61 4 -86 13 -89 11 -3 13 14 10 81 -3 97 -7 96 74 18 40 -38 46 -48
41 -73 -4 -19 -1 -28 7 -28 8 0 10 8 7 23 -6 21 -6 21 8 3 8 -11 15 -23 15
-28 0 -4 -61 -8 -135 -8 -83 0 -135 -4 -135 -10 0 -7 150 -10 431 -10 316 0
430 3 427 11 -3 8 -74 11 -250 10 l-246 -2 -35 63 c-37 66 -116 148 -177 185
-30 17 -94 43 -149 59 -11 4 -12 7 -3 16 19 19 14 37 -14 44 -19 5 -23 11 -18
23 33 74 -3 141 -76 141 -32 0 -47 -6 -66 -27z m49 -1 c-13 -9 -25 -31 -29
-49 -5 -26 -1 -37 19 -57 18 -18 21 -26 12 -26 -27 0 -55 38 -55 74 0 25 7 40
26 55 15 12 32 21 38 21 6 0 1 -8 -11 -18z m-20 -159 c-7 -2 -19 -2 -25 0 -7
3 -2 5 12 5 14 0 19 -2 13 -5z m95 0 c-10 -2 -26 -2 -35 0 -10 3 -2 5 17 5 19
0 27 -2 18 -5z m-118 -27 c0 -3 -4 -8 -10 -11 -5 -3 -10 -1 -10 4 0 6 5 11 10
11 6 0 10 -2 10 -4z m64 -48 c-59 -62 -78 -78 -83 -66 -4 12 111 119 118 112
3 -2 -13 -23 -35 -46z m-104 3 c0 -13 -16 -24 -61 -40 -89 -33 -167 -101 -241
-211 -12 -19 -19 -22 -28 -13 -18 17 24 85 97 154 69 66 135 103 231 128 1 1
2 -7 2 -18z m308 -21 c104 -48 255 -212 222 -243 -9 -9 -16 -7 -28 13 -74 110
-152 178 -241 211 -46 16 -61 26 -61 41 0 23 15 20 108 -22z m-132 -35 c-5
-25 -26 -56 -73 -105 -36 -39 -69 -70 -74 -70 -5 0 -9 14 -9 32 0 27 13 45 77
110 43 42 79 75 81 73 3 -2 1 -20 -2 -40z m-7 -147 c-28 -52 -92 -118 -116
-118 -12 0 -23 2 -23 5 0 9 145 150 148 143 2 -4 -2 -17 -9 -30z m3 -110 c-7
-7 -12 -8 -12 -2 0 6 3 14 7 17 3 4 9 5 12 2 2 -3 -1 -11 -7 -17z m-1121 -11
c-1 -12 -15 -9 -19 4 -3 6 1 10 8 8 6 -3 11 -8 11 -12z m2119 5 c0 -13 -12
-22 -22 -16 -10 6 -1 24 13 24 5 0 9 -4 9 -8z"/>
<path d="M1110 2234 c-30 -14 -76 -42 -103 -62 -47 -36 -127 -134 -127 -156 0
-6 15 12 34 40 59 87 122 135 256 192 14 6 18 11 10 11 -8 1 -40 -11 -70 -25z"/>
<path d="M1430 2248 c134 -57 197 -105 251 -189 18 -27 35 -47 37 -44 8 8 -48
85 -96 131 -46 45 -170 115 -201 113 -10 0 -7 -4 9 -11z"/>
<path d="M934 2231 c-32 -21 -81 -65 -108 -98 l-49 -60 -116 -13 c-194 -21
-200 -28 -25 -29 l161 -1 38 58 c21 31 67 85 102 120 35 34 62 62 60 62 -2 0
-30 -17 -63 -39z"/>
<path d="M1662 2209 c36 -35 82 -90 102 -121 l37 -58 152 1 c171 0 169 9 -7
29 -117 13 -119 14 -150 49 -56 65 -113 116 -156 140 -43 24 -42 23 22 -40z"/>
<path d="M1460 2095 c0 -57 4 -95 10 -95 6 0 10 38 10 95 0 57 -4 95 -10 95
-6 0 -10 -38 -10 -95z"/>
<path d="M1100 2090 c0 -53 4 -90 10 -90 6 0 10 37 10 90 0 53 -4 90 -10 90
-6 0 -10 -37 -10 -90z"/>
<path d="M1050 2075 c0 -98 17 -97 22 0 2 55 0 75 -9 75 -9 0 -13 -22 -13 -75z"/>
<path d="M1550 2071 c0 -41 4 -71 10 -71 6 0 10 28 10 64 0 36 -4 68 -10 71
-6 4 -10 -20 -10 -64z"/>
<path d="M1592 2055 c2 -27 8 -50 16 -53 18 -6 16 72 -4 89 -13 11 -15 7 -12
-36z"/>
<path d="M247 1863 c-9 -8 -9 -733 -1 -733 3 0 46 28 95 62 88 61 90 62 87
100 -2 43 -10 46 -55 18 l-33 -20 0 277 c0 152 -2 274 -5 272 -2 -3 -5 -130
-5 -282 -1 -159 -6 -277 -11 -277 -5 0 -9 124 -9 295 l0 295 -28 0 c-16 0 -32
-3 -35 -7z m30 -425 c-2 -35 -3 -7 -3 62 0 69 1 97 3 63 2 -35 2 -91 0 -125z"/>
<path d="M497 1858 c-39 -30 -47 -78 -47 -298 l0 -210 33 -37 c32 -34 35 -35
69 -24 42 14 96 65 114 108 10 24 13 80 12 210 l-2 178 -5 -180 c-5 -141 -10
-187 -23 -210 -26 -48 -87 -96 -120 -95 -7 1 3 10 23 20 47 25 86 71 99 118
13 48 13 316 0 364 -6 21 -21 44 -33 53 -26 18 -97 20 -120 3z m58 -74 c-18
-14 -20 -30 -25 -202 l-6 -187 -2 192 c-2 174 0 193 16 202 26 16 39 12 17 -5z
m35 -180 c0 -166 -7 -204 -36 -204 -13 0 -15 24 -12 180 2 145 6 183 18 190 8
5 18 6 22 4 4 -3 8 -79 8 -170z m-103 -71 c-2 -27 -3 -5 -3 47 0 52 1 74 3 48
2 -27 2 -69 0 -95z"/>
<path d="M739 1857 c-34 -26 -39 -54 -39 -227 l0 -172 29 -29 c34 -34 51 -35
107 -10 68 31 84 64 82 168 l-1 88 -6 -85 c-6 -91 -17 -118 -54 -143 -29 -19
-99 -39 -92 -26 4 5 14 9 23 9 25 0 71 33 93 66 15 23 19 48 19 112 0 90 1 90
-69 76 -26 -6 -31 -11 -31 -35 0 -19 5 -29 15 -29 35 0 28 -111 -8 -118 -15
-3 -17 9 -17 126 0 145 3 162 32 162 10 0 16 -5 13 -10 -14 -22 6 -50 36 -50
28 0 29 2 29 45 0 65 -31 95 -97 95 -26 0 -55 -6 -64 -13z m64 -57 c-22 -9
-23 -13 -23 -157 0 -81 -4 -143 -8 -136 -8 13 -6 268 2 290 3 7 16 13 28 12
l23 0 -22 -9z m-63 -160 c0 -19 -5 -42 -10 -50 -7 -11 -10 4 -10 50 0 46 3 61
10 50 5 -8 10 -31 10 -50z"/>
<path d="M970 1852 c-24 -20 -25 -25 -28 -166 l-3 -147 31 -29 c36 -34 79 -39
134 -16 59 25 66 45 64 186 l-2 125 -5 -125 c-3 -69 -10 -131 -15 -139 -13
-20 -87 -51 -121 -50 -23 1 -19 3 20 13 64 15 72 20 91 58 13 25 15 55 13 149
-5 142 -10 151 -96 157 -48 3 -63 0 -83 -16z m78 -39 c-23 -6 -27 -27 -31
-153 l-3 -105 -2 126 c-1 69 1 129 5 132 3 4 16 6 27 6 17 -1 18 -2 4 -6z m32
-128 c0 -101 -2 -115 -19 -124 -10 -6 -21 -7 -25 -4 -12 12 -7 218 6 231 31
31 38 14 38 -103z m-103 -52 c-2 -21 -4 -6 -4 32 0 39 2 55 4 38 2 -18 2 -50
0 -70z"/>
<path d="M1290 1700 l0 -170 30 0 29 0 4 118 3 117 2 -122 2 -122 -27 -4 c-26
-4 -26 -4 5 -6 l32 -1 0 93 c1 100 4 99 40 -2 26 -75 49 -101 90 -101 l30 0
-2 178 -2 177 -3 -172 c-3 -156 -5 -173 -21 -173 -12 0 -13 3 -5 8 9 6 12 55
12 180 l-1 172 -34 0 -34 0 -1 -72 c-1 -40 -1 -82 0 -93 l1 -20 -9 20 c-5 11
-7 31 -4 45 3 17 2 21 -5 12 -6 -9 -14 6 -27 48 l-18 60 -44 0 -43 0 0 -170z
m27 -32 c-2 -18 -4 -4 -4 32 0 36 2 50 4 33 2 -18 2 -48 0 -65z"/>
<path d="M1577 1718 c-16 -84 -31 -165 -34 -180 -4 -22 -2 -28 11 -28 10 0 15
-4 12 -9 -7 -11 41 -24 54 -16 6 4 10 17 10 31 0 17 6 24 19 24 34 0 51 -11
51 -34 0 -12 9 -30 21 -39 22 -19 69 -40 76 -34 6 7 -58 380 -69 397 -7 12 -8
10 -4 -5 3 -11 17 -90 31 -175 14 -85 27 -165 30 -177 3 -13 2 -23 -3 -23 -4
0 -8 8 -9 18 -1 9 -15 99 -32 199 -17 100 -31 187 -31 193 0 5 -23 10 -53 10
l-52 0 -28 -152z m73 -20 c-7 -40 -17 -77 -23 -83 -6 -6 -7 -3 -4 10 3 11 8
43 12 70 7 60 15 88 22 81 3 -2 -1 -38 -7 -78z m-45 -28 c-4 -23 -9 -39 -12
-36 -3 2 -2 23 2 46 4 23 9 39 12 36 3 -2 2 -23 -2 -46z m73 -46 c-2 -17 -7
-21 -16 -15 -10 6 -12 21 -6 57 l7 49 9 -34 c5 -18 8 -44 6 -57z m-58 -95
c-11 -36 -20 -49 -20 -28 0 25 12 59 20 59 5 0 5 -14 0 -31z"/>
<path d="M1810 1652 l0 -218 40 -23 40 -22 1 78 2 78 12 -72 c6 -39 18 -79 25
-88 12 -15 62 -45 74 -45 2 0 8 30 13 68 l8 67 5 -75 c5 -71 6 -75 39 -97 19
-13 38 -23 42 -23 5 0 8 129 7 288 l-3 287 -5 -285 -5 -285 -5 290 -5 290 -47
3 -47 3 -6 -43 c-3 -24 -11 -83 -18 -133 l-13 -90 -12 75 c-6 41 -14 97 -18
123 -3 26 -9 46 -11 43 -3 -2 5 -71 17 -151 12 -81 19 -149 16 -152 -5 -5 -7
7 -34 202 l-17 120 -48 3 -47 3 0 -219z m27 -49 c-2 -27 -3 -5 -3 47 0 52 1
74 3 48 2 -27 2 -69 0 -95z m40 -125 c-1 -40 -3 -8 -3 72 0 80 2 112 3 73 2
-40 2 -106 0 -145z m137 10 c-9 -71 -20 -128 -23 -128 -4 0 3 71 14 158 11 86
22 144 23 127 2 -16 -4 -87 -14 -157z"/>
<path d="M2148 1569 l-3 -300 25 -23 c34 -31 147 -116 154 -116 3 0 6 24 6 53
0 51 -1 53 -45 79 l-45 28 0 90 c0 49 2 90 5 90 3 0 22 -7 42 -15 19 -8 37
-15 39 -15 2 0 3 24 2 53 l-2 52 -5 -50 -5 -50 -6 59 c-5 57 -6 60 -37 68
l-33 9 0 85 0 85 60 -7 60 -7 -2 54 -1 54 -6 -45 c-5 -35 -10 -45 -26 -47 -11
-2 -14 0 -7 3 7 4 12 26 12 60 l0 54 -90 0 -89 0 -3 -301z m82 111 c0 -53 -4
-90 -10 -90 -6 0 -10 37 -10 90 0 53 4 90 10 90 6 0 10 -37 10 -90z m37 84
c-3 -3 -12 -4 -19 -1 -8 3 -5 6 6 6 11 1 17 -2 13 -5z m-80 -256 c-1 -40 -3
-10 -3 67 0 77 1 110 3 73 2 -37 2 -100 0 -140z m43 -114 c0 -60 -4 -93 -10
-89 -12 8 -12 185 1 185 5 0 9 -43 9 -96z"/>
<path d="M911 1763 c-1 -37 -4 -42 -28 -46 -22 -4 -20 -5 6 -3 37 1 42 11 30
61 -6 28 -7 27 -8 -12z"/>
<path d="M1155 1469 c-347 -40 -681 -220 -831 -446 -89 -135 -104 -265 -38
-334 34 -36 74 -45 112 -25 33 17 42 34 42 77 0 28 -29 69 -49 69 -5 0 -18 3
-28 7 -15 5 -15 2 5 -19 29 -31 28 -54 -2 -73 -45 -30 -86 21 -86 108 0 35 34
137 60 179 l20 33 0 -40 c0 -46 23 -85 49 -85 26 0 44 25 36 50 -7 23 -25 27
-25 5 0 -20 -26 -19 -34 1 -10 26 -7 43 15 94 22 51 109 135 116 113 3 -7 23
-40 46 -74 54 -81 157 -186 227 -232 52 -33 192 -107 205 -107 4 0 71 -65 150
-145 79 -80 148 -145 154 -145 5 0 74 65 152 145 79 80 152 148 164 151 158
51 358 216 443 366 15 27 29 48 32 48 3 0 24 -19 48 -41 65 -62 93 -128 76
-173 -8 -21 -34 -20 -34 1 0 16 -1 16 -16 1 -13 -12 -14 -20 -5 -37 23 -41 80
-15 82 37 1 15 1 33 0 40 -4 29 12 8 41 -55 26 -54 32 -81 32 -135 1 -60 -2
-70 -26 -94 -26 -26 -27 -27 -52 -10 -29 18 -34 47 -11 66 25 20 17 30 -15 18
-44 -15 -63 -63 -44 -113 10 -25 62 -47 94 -40 40 9 90 68 92 108 6 135 -44
244 -174 375 -234 238 -656 374 -1023 331z m15 -27 c-138 -93 -159 -270 -46
-391 30 -33 30 -33 6 -26 -53 15 -167 75 -204 107 l-39 34 2 109 c2 83 -1 107
-9 98 -8 -7 -11 -42 -9 -102 l4 -90 -28 27 c-28 26 -87 112 -87 126 0 27 314
122 415 124 18 1 17 -1 -5 -16z m197 3 c116 -35 186 -162 153 -279 -16 -57
-72 -123 -124 -147 -53 -24 -139 -24 -191 0 -53 24 -111 90 -126 143 -23 88
13 200 82 249 33 23 100 47 135 48 11 1 43 -6 71 -14z m223 -17 c92 -22 236
-74 245 -88 16 -26 -122 -187 -205 -240 -39 -25 -161 -80 -178 -80 -2 0 10 16
27 35 45 52 63 91 68 154 8 90 -32 171 -113 226 l-39 27 55 -7 c30 -3 93 -15
140 -27z m-815 -159 c94 -160 329 -289 526 -289 134 0 318 73 418 165 45 42
113 127 137 173 3 6 106 -49 161 -85 l53 -36 -18 -29 c-82 -139 -217 -264
-367 -337 -124 -61 -200 -81 -338 -88 -317 -17 -596 123 -775 389 -18 26 -32
53 -32 60 0 15 174 126 200 127 3 1 19 -22 35 -50z m385 -540 c82 -13 218 -11
306 6 43 8 79 13 80 12 2 -2 -53 -59 -121 -127 l-125 -125 -128 129 c-107 108
-122 127 -97 121 17 -4 55 -11 85 -16z"/>
<path d="M1100 1424 c0 -8 5 -12 10 -9 6 3 10 10 10 16 0 5 -4 9 -10 9 -5 0
-10 -7 -10 -16z"/>
<path d="M1050 1388 c0 -31 3 -39 11 -31 17 17 19 73 3 73 -10 0 -14 -13 -14
-42z"/>
<path d="M1010 1256 c0 -99 4 -167 10 -171 7 -4 10 53 10 164 0 107 -4 171
-10 171 -6 0 -10 -61 -10 -164z"/>
<path d="M965 1398 c-10 -25 0 -278 10 -281 13 -3 17 281 4 289 -5 3 -11 -1
-14 -8z"/>
<path d="M920 1271 c0 -69 4 -122 10 -126 6 -4 10 38 10 119 0 77 -4 126 -10
126 -6 0 -10 -46 -10 -119z"/>
<path d="M830 1301 c0 -33 5 -63 10 -66 6 -4 10 18 10 59 0 37 -4 66 -10 66
-6 0 -10 -26 -10 -59z"/>
<path d="M780 1326 c0 -8 5 -18 10 -21 6 -3 10 3 10 14 0 12 -4 21 -10 21 -5
0 -10 -6 -10 -14z"/>
<path d="M1050 1093 c0 -13 5 -23 10 -23 13 0 13 11 0 30 -8 12 -10 11 -10 -7z"/>
<path d="M1250 1348 c0 -2 7 -27 14 -56 14 -50 13 -56 -5 -87 -11 -18 -29 -35
-39 -38 -24 -6 -26 -30 -5 -47 21 -17 48 6 41 35 -6 23 18 65 36 65 7 0 23
-10 36 -22 l24 -23 -19 40 c-19 36 -19 44 -7 79 17 47 12 59 -6 16 -16 -38
-24 -38 -40 0 -10 25 -30 50 -30 38z m-5 -197 c7 -12 -12 -24 -25 -16 -11 7
-4 25 10 25 5 0 11 -4 15 -9z"/>
<path d="M1100 1245 c0 -8 5 -15 11 -15 5 0 8 4 5 9 -4 5 0 12 6 14 8 3 6 6
-4 6 -10 1 -18 -6 -18 -14z"/>
<path d="M1146 1252 c-3 -6 -1 -14 5 -17 14 -9 20 -2 10 14 -6 8 -11 9 -15 3z"/>
<path d="M1180 1245 c0 -8 2 -15 4 -15 2 0 6 7 10 15 3 8 1 15 -4 15 -6 0 -10
-7 -10 -15z"/>
<path d="M1211 1243 c0 -12 2 -14 6 -4 5 11 7 11 15 0 8 -12 9 -12 6 0 -6 22
-28 25 -27 4z"/>
<path d="M1366 1244 c-4 -9 -4 -19 -1 -22 2 -3 7 3 11 12 4 9 4 19 1 22 -2 3
-7 -3 -11 -12z"/>
<path d="M1403 1245 c0 -8 4 -15 9 -15 4 0 8 4 8 9 0 6 -4 12 -8 15 -5 3 -9
-1 -9 -9z"/>
<path d="M1471 1244 c0 -11 3 -14 6 -6 3 7 2 16 -1 19 -3 4 -6 -2 -5 -13z"/>
<path d="M1343 1154 c-3 -8 2 -23 11 -32 15 -15 17 -15 32 0 21 21 11 48 -16
48 -11 0 -23 -7 -27 -16z m42 -3 c7 -12 -12 -24 -25 -16 -11 7 -4 25 10 25 5
0 11 -4 15 -9z"/>
<path d="M1500 1416 c0 -7 7 -19 15 -26 13 -11 15 -8 15 14 0 16 -5 26 -15 26
-8 0 -15 -6 -15 -14z"/>
<path d="M1551 1373 c2 -85 17 -106 18 -25 1 42 -3 72 -9 72 -5 0 -10 -21 -9
-47z"/>
<path d="M1591 1254 c0 -113 4 -154 12 -151 8 2 13 51 15 155 2 132 0 152 -13
152 -13 0 -15 -21 -14 -156z"/>
<path d="M1640 1265 c0 -83 4 -135 10 -135 6 0 10 52 10 135 0 83 -4 135 -10
135 -6 0 -10 -52 -10 -135z"/>
<path d="M1685 1380 c-3 -5 -5 -57 -4 -115 2 -86 5 -103 16 -94 9 8 13 40 13
110 0 90 -9 125 -25 99z"/>
<path d="M1730 1289 c0 -51 4 -78 10 -74 6 3 10 40 10 81 0 43 -4 74 -10 74
-6 0 -10 -34 -10 -81z"/>
<path d="M1770 1305 c0 -42 2 -46 16 -35 18 15 15 71 -3 78 -9 2 -13 -10 -13
-43z"/>
<path d="M1558 1145 c-11 -58 -10 -81 3 -68 5 5 9 32 7 59 l-3 49 -7 -40z"/>
<path d="M729 1282 c32 -59 108 -145 172 -194 263 -202 632 -178 864 57 59 59
109 129 103 145 -2 7 -18 -10 -35 -37 -71 -110 -186 -200 -321 -251 -60 -24
-81 -26 -207 -27 -121 0 -149 3 -206 23 -131 45 -276 157 -335 258 -14 24 -30
44 -35 44 -6 0 -6 -7 0 -18z"/>
<path d="M695 1206 c-16 -18 -39 -37 -50 -43 -19 -11 -19 -11 0 -33 40 -44 85
-49 85 -9 0 12 7 19 19 19 33 0 34 19 6 61 -15 21 -28 38 -29 38 0 -1 -14 -16
-31 -33z m58 -21 c7 -18 -9 -29 -30 -21 -12 5 -13 9 -3 21 16 19 26 19 33 0z
m-43 -39 c0 -21 -23 -36 -40 -26 -11 7 -11 11 -1 24 16 20 41 21 41 2z"/>
<path d="M1842 1198 l-20 -31 44 -30 c24 -16 44 -35 44 -44 0 -8 4 -11 10 -8
13 8 33 46 23 43 -4 -1 -18 3 -31 10 -21 12 -21 15 -8 34 11 15 12 26 5 40
-15 28 -45 22 -67 -14z m52 -28 c-7 -7 -16 -5 -30 5 -16 13 -17 16 -4 24 19
13 50 -13 34 -29z"/>
<path d="M560 1189 c0 -21 74 -122 135 -183 375 -377 1007 -320 1307 117 21
32 38 62 36 68 -2 5 -22 -19 -45 -53 -106 -162 -275 -281 -479 -340 -66 -19
-102 -22 -219 -22 -122 1 -151 4 -228 27 -93 29 -173 66 -247 116 -67 46 -177
159 -217 224 -37 58 -43 65 -43 46z"/>
<path d="M1745 1095 c-41 -40 -24 -103 31 -119 32 -10 84 37 84 75 0 63 -70
90 -115 44z m74 -19 c31 -33 25 -70 -11 -74 -46 -5 -86 56 -56 86 19 19 42 14
67 -12z"/>
<path d="M789 1066 c-45 -23 -62 -35 -55 -42 8 -8 14 -7 22 4 8 12 15 12 32 3
26 -14 28 -29 7 -38 -14 -5 -14 -8 1 -24 9 -11 22 -19 27 -19 6 0 8 3 4 6 -3
3 3 31 14 62 11 31 18 62 17 68 -2 7 -29 -1 -69 -20z m34 -16 c-6 -21 -24 -23
-30 -3 -2 6 4 13 14 16 10 3 19 5 20 6 0 0 -1 -8 -4 -19z"/>
<path d="M920 1023 c0 -19 -36 -84 -52 -94 -5 -3 4 -11 19 -18 15 -7 25 -10
21 -6 -4 4 4 30 18 58 23 45 27 48 41 34 19 -18 9 -37 -19 -37 -18 0 -19 -4
-13 -37 8 -44 13 -53 26 -53 5 0 7 17 3 40 -5 31 -3 40 8 40 20 0 37 20 31 37
-3 7 -23 23 -44 34 -37 18 -39 18 -39 2z"/>
<path d="M1650 1025 c-14 -8 -20 -14 -13 -15 7 0 17 -9 23 -20 9 -17 7 -22
-15 -32 -22 -10 -28 -9 -36 3 -5 8 -7 20 -4 27 5 15 0 15 -26 1 -18 -9 -19
-12 -6 -27 23 -27 48 -82 42 -92 -9 -14 6 -12 35 5 17 10 20 14 9 15 -15 0
-29 19 -29 39 0 4 11 13 24 19 22 10 26 8 32 -11 5 -12 7 -25 6 -29 -1 -4 10
-2 24 4 15 7 21 14 15 16 -12 4 -40 54 -50 89 -6 20 -8 20 -31 8z"/>
<path d="M1052 964 c5 -5 -10 -63 -27 -105 -5 -13 2 -18 28 -23 19 -4 41 -4
50 0 21 8 30 34 17 49 -8 9 -6 14 5 19 26 10 16 36 -20 52 -34 14 -63 19 -53
8z m56 -37 c2 -11 -3 -17 -16 -17 -15 0 -19 5 -15 20 6 24 26 21 31 -3z m-8
-52 c0 -18 -29 -40 -39 -29 -14 15 6 55 24 48 8 -3 15 -12 15 -19z"/>
<path d="M1464 939 c-24 -27 -9 -52 37 -59 21 -3 34 -11 34 -20 0 -19 -45 -26
-57 -8 -7 9 -8 8 -6 -7 4 -27 39 -30 68 -7 18 14 22 25 16 45 -5 21 -13 26
-44 29 -38 3 -45 16 -17 33 11 7 18 6 25 -5 8 -13 10 -12 10 3 0 24 -42 22
-66 -4z"/>
<path d="M1186 927 c3 -8 1 -38 -4 -66 l-9 -51 33 -6 c38 -7 64 0 64 17 0 8
-4 8 -15 -1 -20 -17 -45 -5 -45 21 0 18 4 20 25 15 21 -5 25 -3 25 15 0 16 -3
19 -13 11 -17 -15 -39 1 -31 21 7 20 40 23 47 5 3 -8 6 -6 6 5 1 11 -6 17 -21
17 -13 0 -33 3 -46 6 -17 5 -21 3 -16 -9z"/>
<path d="M1312 888 c5 -24 7 -53 5 -65 -3 -19 0 -23 19 -23 21 0 22 3 13 32
-14 50 -11 88 6 88 23 0 31 -31 12 -45 -15 -10 -14 -15 11 -43 18 -21 31 -29
40 -24 9 6 6 14 -13 32 -23 21 -24 25 -10 40 27 30 8 50 -45 50 l-48 0 10 -42z"/>
<path d="M1143 696 c4 -10 7 -20 7 -22 0 -2 4 -4 9 -4 14 0 6 33 -9 38 -9 3
-11 -1 -7 -12z"/>
<path d="M1417 704 c-10 -11 -8 -54 2 -54 14 0 25 40 14 51 -5 5 -12 6 -16 3z"/>
<path d="M1460 699 c0 -5 5 -7 10 -4 6 3 10 8 10 11 0 2 -4 4 -10 4 -5 0 -10
-5 -10 -11z"/>
<path d="M1190 665 c0 -19 5 -35 10 -35 6 0 10 16 10 35 0 19 -4 35 -10 35 -5
0 -10 -16 -10 -35z"/>
<path d="M1230 653 c0 -54 14 -89 25 -61 10 26 1 101 -12 106 -9 2 -13 -10
-13 -45z"/>
<path d="M1280 628 c0 -40 5 -80 10 -88 7 -10 10 12 10 73 0 51 -4 87 -10 87
-6 0 -10 -31 -10 -72z"/>
<path d="M1326 693 c-3 -3 -6 -35 -6 -69 0 -52 3 -62 15 -58 11 5 15 22 15 64
0 55 -9 78 -24 63z"/>
<path d="M1370 649 c0 -31 4 -48 10 -44 6 3 10 26 10 51 0 24 -4 44 -10 44 -5
0 -10 -23 -10 -51z"/>
<path d="M440 1282 c0 -36 -4 -41 -85 -98 -47 -32 -85 -63 -85 -67 0 -10 6 -6
103 61 76 53 77 54 77 98 0 24 -2 44 -5 44 -3 0 -5 -17 -5 -38z"/>
<path d="M2349 1183 c0 -16 -2 -38 -5 -50 -2 -13 1 -23 6 -23 6 0 10 23 10 50
0 52 -9 71 -11 23z"/>
<path d="M512 100 c0 -33 2 -39 7 -21 9 34 29 37 34 6 4 -24 4 -24 3 2 -1 18
-7 28 -16 28 -8 0 -18 7 -22 15 -4 8 -6 -5 -6 -30z"/>
<path d="M649 131 c-10 -28 3 -71 20 -70 10 0 11 2 4 6 -18 7 -16 43 2 43 9 0
15 -9 15 -25 0 -17 5 -25 18 -24 10 0 12 3 5 6 -15 5 -17 40 -4 45 5 2 3 9 -5
16 -8 7 -14 8 -14 2 0 -14 -27 -13 -32 3 -4 9 -6 8 -9 -2z"/>
<path d="M908 128 c-9 -25 5 -68 21 -67 10 0 11 2 4 6 -15 5 -17 40 -4 45 5 2
3 8 -4 15 -10 9 -15 9 -17 1z"/>
<path d="M1081 100 c0 -29 2 -40 8 -31 6 9 11 10 15 2 4 -6 12 -11 18 -11 6 0
2 10 -9 23 -12 12 -23 31 -26 42 -3 11 -5 0 -6 -25z"/>
<path d="M1553 133 c20 -5 21 -16 6 -45 -6 -11 -8 -22 -5 -25 5 -5 36 57 36
72 0 3 -12 4 -27 4 -17 -1 -21 -3 -10 -6z"/>
<path d="M1636 115 c4 -15 2 -25 -5 -25 -6 0 -8 8 -5 18 5 14 3 14 -11 -3 -15
-19 -15 -20 4 -23 12 -2 21 -9 21 -15 0 -9 3 -8 8 1 10 16 3 72 -9 72 -5 0 -7
-11 -3 -25z"/>
<path d="M1693 133 c21 -6 22 -26 2 -43 -23 -19 -18 -30 13 -29 18 1 21 3 9 6
-17 4 -18 6 -2 24 22 23 13 49 -17 48 -17 -1 -18 -2 -5 -6z"/>
<path d="M1754 126 c-11 -28 0 -61 21 -61 29 0 31 33 3 44 l-23 9 25 10 c25
11 25 11 2 11 -12 1 -25 -5 -28 -13z m36 -41 c0 -8 -4 -15 -9 -15 -13 0 -22
16 -14 24 11 11 23 6 23 -9z"/>
<path d="M1833 133 c20 -5 21 -16 6 -45 -6 -11 -8 -22 -5 -25 5 -5 36 57 36
72 0 3 -12 4 -27 4 -17 -1 -21 -3 -10 -6z"/>
<path d="M1903 133 c18 -5 19 -15 2 -55 -4 -10 -3 -18 3 -18 5 0 13 11 16 24
3 13 9 31 12 40 5 12 0 16 -22 15 -19 -1 -23 -3 -11 -6z"/>
<path d="M1967 134 c-14 -14 -7 -35 16 -43 l22 -9 -25 -11 -25 -11 25 3 c21 2
25 7 25 37 0 33 -20 51 -38 34z m25 -19 c0 -5 -5 -11 -11 -13 -6 -2 -11 4 -11
13 0 9 5 15 11 13 6 -2 11 -8 11 -13z"/>
<path d="M2038 133 c6 -2 12 -17 12 -33 0 -16 -6 -31 -12 -33 -7 -3 1 -5 17
-5 17 0 24 2 18 5 -7 2 -13 20 -13 39 0 26 -4 34 -17 33 -11 0 -13 -3 -5 -6z"/>
<path d="M2104 126 c-11 -29 1 -61 24 -64 31 -5 31 35 0 47 l-23 9 25 10 c25
11 25 11 2 11 -12 1 -25 -5 -28 -13z m36 -41 c0 -8 -4 -15 -9 -15 -13 0 -22
16 -14 24 11 11 23 6 23 -9z"/>
<path d="M450 105 c0 -9 8 -19 17 -22 15 -6 15 -7 -3 -14 -17 -7 -17 -8 4 -8
26 -1 30 24 5 34 -17 7 -16 8 2 15 19 8 19 9 -2 9 -14 1 -23 -5 -23 -14z"/>
<path d="M584 90 c1 -18 7 -26 24 -28 19 -3 22 1 21 30 -2 30 -2 31 -6 6 -5
-34 -30 -37 -36 -5 -3 19 -4 19 -3 -3z"/>
<path d="M734 106 c-10 -25 3 -46 28 -45 l23 2 -22 4 c-29 6 -30 23 -2 23 12
0 19 5 17 13 -7 18 -37 21 -44 3z m33 -2 c-3 -3 -12 -4 -19 -1 -8 3 -5 6 6 6
11 1 17 -2 13 -5z"/>
<path d="M801 88 c2 -28 2 -29 6 -8 3 14 10 28 17 32 7 5 5 8 -6 8 -14 0 -18
-8 -17 -32z"/>
<path d="M850 105 c0 -9 8 -19 17 -22 15 -6 15 -7 -3 -14 -17 -7 -17 -8 4 -8
26 -1 30 24 5 34 -17 7 -16 8 2 15 19 8 19 9 -2 9 -14 1 -23 -5 -23 -14z"/>
<path d="M951 102 c-8 -15 -7 -23 4 -32 21 -18 47 -4 43 22 -4 29 -34 35 -47
10z m34 -12 c0 -7 -6 -15 -12 -17 -8 -3 -13 4 -13 17 0 13 5 20 13 18 6 -3 12
-11 12 -18z"/>
<path d="M1024 105 c-9 -23 3 -45 23 -44 17 1 17 2 1 6 -26 7 -22 41 5 46 l22
4 -23 2 c-12 0 -25 -6 -28 -14z"/>
<path d="M1105 110 c-3 -5 -2 -10 4 -10 5 0 13 5 16 10 3 6 2 10 -4 10 -5 0
-13 -4 -16 -10z"/>
<path d="M1184 105 c-9 -23 3 -45 23 -44 17 1 17 2 1 6 -10 2 -18 13 -18 23 0
10 8 21 18 23 16 4 16 5 -1 6 -10 0 -20 -6 -23 -14z"/>
<path d="M1244 106 c-9 -24 4 -48 23 -44 12 2 18 12 18 28 0 29 -32 41 -41 16z
m31 -16 c0 -7 -6 -15 -12 -17 -8 -3 -13 4 -13 17 0 13 5 20 13 18 6 -3 12 -11
12 -18z"/>
<path d="M1311 87 c2 -30 2 -30 6 -4 2 15 10 27 18 27 8 0 16 -12 18 -27 l4
-28 2 28 c1 34 22 32 33 -4 6 -22 7 -21 5 6 -2 28 -5 30 -44 32 -43 3 -43 2
-42 -30z"/>
</g>
</svg>
